<?xml version="1.0" encoding="utf-8"?>
<!DOCTYPE svg PUBLIC "-//W3C//DTD SVG 1.1//EN" "http://www.w3.org/Graphics/SVG/1.1/DTD/svg11.dtd">
<svg version="1.1"
	 xmlns="http://www.w3.org/2000/svg" xmlns:xlink="http://www.w3.org/1999/xlink" x="0px" y="0px" viewBox="0 0 325 325"
	 enable-background="new 0 0 325 325" xml:space="preserve">
<path fill="#fff" d="M162.5,0C72.8,0,0,72.8,0,162.5S72.8,325,162.5,325S325,252.2,325,162.5S252.2,0,162.5,0z M177.7,294.1
    V112.9c17,14.7,35.8,31.3,45.7,41.2c3.2,3.2,7.5,5,12,5c4.5,0,8.8-1.8,12-5c3.2-3.2,5-7.5,5-12c0-4.5-1.8-8.8-5-12
    c-19.7-19.8-70-62.1-75.6-66.8c-2.3-2-5.1-3.3-8.1-3.9l-1.6-0.2c-0.2,0-0.5,0-0.8,0c-3.8-0.1-7.5,1-10.6,3.3c-0.4,0.3-0.7,0.5-1,0.8
    c-2.3,1.9-55.4,46.8-75.7,67.1c-3.2,3.2-5,7.5-5,12c0,4.5,1.8,8.8,5,12c3.2,3.2,7.5,5,12,5s8.8-1.8,12-5
    c9.9-9.9,28.7-26.5,45.7-41.2v180.8C79.5,284.8,30,229.7,30,163C30,90.1,89.1,31,162,31s132,59.1,132,132
    C294,230.6,243.2,286.3,177.7,294.1z"/>
</svg>
