<?xml version="1.0" encoding="utf-8"?>
<!DOCTYPE svg PUBLIC "-//W3C//DTD SVG 1.1//EN" "http://www.w3.org/Graphics/SVG/1.1/DTD/svg11.dtd">
<svg version="1.1"
	 xmlns="http://www.w3.org/2000/svg" xmlns:xlink="http://www.w3.org/1999/xlink" x="0px" y="0px" viewBox="0 0 662 327"
	 enable-background="new 0 0 662 327" xml:space="preserve">
<path fill="#fff" d="M162.5,0C72.8,0,0,72.8,0,162.5S72.8,325,162.5,325S325,252.2,325,162.5S252.2,0,162.5,0z M177.7,294.1
    V112.9c17,14.7,35.8,31.3,45.7,41.2c3.2,3.2,7.5,5,12,5c4.5,0,8.8-1.8,12-5c3.2-3.2,5-7.5,5-12c0-4.5-1.8-8.8-5-12
    c-19.7-19.8-70-62.1-75.6-66.8c-2.3-2-5.1-3.3-8.1-3.9l-1.6-0.2c-0.2,0-0.5,0-0.8,0c-3.8-0.1-7.5,1-10.6,3.3
    c-0.4,0.3-0.7,0.5-1,0.8c-2.3,1.9-55.4,46.8-75.7,67.1c-3.2,3.2-5,7.5-5,12c0,4.5,1.8,8.8,5,12c3.2,3.2,7.5,5,12,5s8.8-1.8,12-5
    c9.9-9.9,28.7-26.5,45.7-41.2v180.8C79.5,284.8,30,229.7,30,163C30,90.1,89.1,31,162,31s132,59.1,132,132
    C294,230.6,243.2,286.3,177.7,294.1z"/>
<path fill="#fff" d="M394.9,308.7c0,10.6,6.8,18.3,17.5,18.3c10.2,0,17-7.7,17-18.3
    V41.2c0-11.9-0.9-19.2-2.1-21.7c-1.7-4.3-6.4-8.5-13.6-8.5c-1.7,0-3.4,0.4-65.2,17.9c-11.1,3-15.8,10.7-15.8,17.9
    c0,8.5,6.8,14.1,14.9,14.1c1.7,0,3.4-0.4,5.5-0.9L394.9,48V308.7z M477.1,89.3c0,9.8,6,22.6,17.9,22.6c11.5,0,17-12.4,17-20.4
    c0-37.9,27.3-57.1,55-57.1s55.4,18.7,55.4,50.3c0,18.3-6.8,37.5-18.7,53.7L487.7,295.9c-4.3,5.5-6.4,11.1-6.4,15.8
    c0,10.2,7.7,15.3,23.4,15.3h141c10.6,0,16.2-6,16.2-16.6c0-10.2-5.1-15.8-15.8-15.8H526.5L627,162.6c19.6-26,30.2-55,30.2-80.9
    c0-48.6-44.3-80.1-88.6-80.1C523.1,1.5,477.1,34.8,477.1,89.3L477.1,89.3z"/>
</svg>
